# xmcd
#
# Track frame offsets:
#	150
#	12750
#	30075
#	42712
#	57975
#	72637
#	93000
#	106687
#	126225
#	138262
#	153525
#	167475
#	181500
#	192975
#	210712
#	230850
#	241762
#	255712
#	270825
#
# Disc length: 3826 seconds
#
# Revision: 1
# Processed by: cddbd v1.5.1PL2 Copyright (c) Steve Scherf et al.
# Submitted via: EasyCDDAExtractor 9.1.0.1
#
DISCID=f70ef013
DTITLE=Various Artist - Mama's Hand, Bluegrass And Mountain Songs About Mothe
DTITLE=r
DYEAR=2002
DGENRE=Bluegrass
TTITLE0=Rhonda Vincent - Medals For Mother
TTITLE1=Rambler's Choice - Mama's Flowers
TTITLE2=Hazel Dickens and Alice Gerrard - Mama's Gonna Stay
TTITLE3=The Blue Sky Boys - If I Could Hear My Mother Pray Again
TTITLE4=Joe Val - Rocking Alone In An Old Rocking Chair
TTITLE5=Hazel Dickens - Mama's Hand
TTITLE6=The Whitstein Brothers - Shake My Mother's Hand For Me
TTITLE7=James King - Sweeter Than The Flowers
TTITLE8=Jim and Jesse - Dear Old Mother
TTITLE9=Hazel Dickens and Alice Gerrard - The Sweetest Gift, A Mother's Smile
TTITLE10=Doc and Rosa Lee Watson - I Heard My Mother Weeping
TTITLE11=Connie and Babe And The Backwoods Boys - Dreaming Of A Little Cabin
TTITLE12=Bashful Brother Oswald and Charlie Collins - Mother, The Queen Of My He
TTITLE12=art
TTITLE13=Susanne (Edmundson) Thomas and Carol Elizabeth Jones - I Have No Mother
TTITLE13=Now
TTITLE14=The Johnson Mountain Boys - Mother's Voice Is In The Wind
TTITLE15=Phyllis Boyens - Dream Of A Miner's Child
TTITLE16=The Warrior River Boys - Picture On The Wall
TTITLE17=Alison Krauss and Union Station Feat. Dan Tyminski - Mama Cried
TTITLE18=Dry Branch Fire Squad - A Mother's Last Words To Her Daughter
EXTD=
EXTT0=
EXTT1=
EXTT2=
EXTT3=
EXTT4=
EXTT5=
EXTT6=
EXTT7=
EXTT8=
EXTT9=
EXTT10=
EXTT11=
EXTT12=
EXTT13=
EXTT14=
EXTT15=
EXTT16=
EXTT17=
EXTT18=
PLAYORDER=
